@startuml
'https://plantuml.com/class-diagram

package ska_oso_oet.procedure {

package application as application_pkg {

    package restserver <<Rectangle>> {
        class app <<function return value>> {
        }

        class ServerSentEventsBlueprint {
            messages() -> Generator[Message]
            stream()
        }

        class Message

        app o-- ServerSentEventsBlueprint
        ServerSentEventsBlueprint *-- Message
    }
}

package flask {
    class Flask
    class Blueprint

    Flask -down[hidden]- Blueprint
}
}

app -|> Flask
ServerSentEventsBlueprint --|> Blueprint

@enduml
