@startuml
'https://plantuml.com/class-diagram

package ska_oso_oet_client {
    package restclient <<Rectangle>> {
        class RestClientUI {
        }
    }
}

package ska_oso_oet {
    package main <<Rectangle>> {
        class ScriptExecutionServiceWorker {
            prepare(...)
            start(...)
            stop(...)
            list(...)
        }

        class FastAPIWorker {
        }
    }

    package procedure {
        package application <<Rectangle>> {
            class ScriptExecutionService {
            }
        }
    }


    RestClientUI - FastAPIWorker : Sends user request\n >
    FastAPIWorker -- ScriptExecutionServiceWorker : relays\nrequest\n >
    ScriptExecutionServiceWorker -- ScriptExecutionService : invokes\ncommands\n >
}


@enduml
